{
   "format": {
      "bit_rate": "1231233",
      "duration": "1:23:45.670000",
      "filename": "videofile.mkv",
      "format_long_name": "Matroska / WebM",
      "format_name": "matroska,webm",
      "nb_programs": 0,
      "nb_streams": 24,
      "probe_score": 100,
      "size": "12345678901",
      "start_time": "0:00:00.000000",
      "tags": {
         "creation_time": "2015-12-28T12:34:56.000000Z",
         "encoder": "libebml v1.3.4 + libmatroska v1.4.5",
         "title": "Super Title"
      }
   },
   "streams": [
      {
         "avg_frame_rate": "24000/1001",
         "bits_per_raw_sample": "8",
         "chroma_location": "left",
         "codec_long_name": "H.264 / AVC / MPEG-4 AVC / MPEG-4 part 10",
         "codec_name": "h264",
         "codec_tag": "0x0000",
         "codec_tag_string": "[0][0][0][0]",
         "codec_time_base": "1001/48000",
         "codec_type": "video",
         "coded_height": 1080,
         "coded_width": 1920,
         "color_primaries": "bt709",
         "color_range": "tv",
         "color_space": "bt709",
         "color_transfer": "bt709",
         "display_aspect_ratio": "16:9",
         "disposition": {
            "attached_pic": 0,
            "clean_effects": 0,
            "comment": 0,
            "default": 1,
            "dub": 0,
            "forced": 0,
            "hearing_impaired": 0,
            "karaoke": 0,
            "lyrics": 0,
            "original": 0,
            "timed_thumbnails": 0,
            "visual_impaired": 0
         },
         "field_order": "progressive",
         "has_b_frames": 1,
         "height": 1080,
         "index": 0,
         "is_avc": "true",
         "level": 41,
         "nal_length_size": "4",
         "pix_fmt": "yuv420p",
         "profile": "High",
         "r_frame_rate": "24000/1001",
         "refs": 1,
         "sample_aspect_ratio": "1:1",
         "start_pts": 0,
         "start_time": "0:00:00.000000",
         "tags": {
            "title": "Super Title"
         },
         "time_base": "1/1000",
         "width": 1920
      },
      {
         "avg_frame_rate": "0/0",
         "bits_per_raw_sample": "24",
         "bits_per_sample": 0,
         "channel_layout": "7.1",
         "channels": 8,
         "codec_long_name": "DCA (DTS Coherent Acoustics)",
         "codec_name": "dts",
         "codec_tag": "0x0000",
         "codec_tag_string": "[0][0][0][0]",
         "codec_time_base": "1/48000",
         "codec_type": "audio",
         "disposition": {
            "attached_pic": 0,
            "clean_effects": 0,
            "comment": 0,
            "default": 1,
            "dub": 0,
            "forced": 0,
            "hearing_impaired": 0,
            "karaoke": 0,
            "lyrics": 0,
            "original": 0,
            "timed_thumbnails": 0,
            "visual_impaired": 0
         },
         "index": 1,
         "profile": "DTS-HD MA",
         "r_frame_rate": "0/0",
         "sample_fmt": "s32p",
         "sample_rate": "48000",
         "start_pts": 0,
         "start_time": "0:00:00.000000",
         "tags": {
            "language": "eng",
            "title": "Super Title"
         },
         "time_base": "1/1000"
      },
      {
         "avg_frame_rate": "0/0",
         "bit_rate": "1536000",
         "bits_per_sample": 0,
         "channel_layout": "5.1(side)",
         "channels": 6,
         "codec_long_name": "DCA (DTS Coherent Acoustics)",
         "codec_name": "dts",
         "codec_tag": "0x0000",
         "codec_tag_string": "[0][0][0][0]",
         "codec_time_base": "1/48000",
         "codec_type": "audio",
         "disposition": {
            "attached_pic": 0,
            "clean_effects": 0,
            "comment": 0,
            "default": 0,
            "dub": 0,
            "forced": 0,
            "hearing_impaired": 0,
            "karaoke": 0,
            "lyrics": 0,
            "original": 0,
            "timed_thumbnails": 0,
            "visual_impaired": 0
         },
         "index": 2,
         "profile": "DTS",
         "r_frame_rate": "0/0",
         "sample_fmt": "fltp",
         "sample_rate": "48000",
         "start_pts": 0,
         "start_time": "0:00:00.000000",
         "tags": {
            "language": "eng",
            "title": "Super Title"
         },
         "time_base": "1/1000"
      },
      {
         "avg_frame_rate": "0/0",
         "bit_rate": "320000",
         "bits_per_sample": 0,
         "channel_layout": "stereo",
         "channels": 2,
         "codec_long_name": "ATSC A/52A (AC-3)",
         "codec_name": "ac3",
         "codec_tag": "0x0000",
         "codec_tag_string": "[0][0][0][0]",
         "codec_time_base": "1/48000",
         "codec_type": "audio",
         "disposition": {
            "attached_pic": 0,
            "clean_effects": 0,
            "comment": 0,
            "default": 0,
            "dub": 0,
            "forced": 0,
            "hearing_impaired": 0,
            "karaoke": 0,
            "lyrics": 0,
            "original": 0,
            "timed_thumbnails": 0,
            "visual_impaired": 0
         },
         "dmix_mode": "-1",
         "index": 3,
         "loro_cmixlev": "-1.000000",
         "loro_surmixlev": "-1.000000",
         "ltrt_cmixlev": "-1.000000",
         "ltrt_surmixlev": "-1.000000",
         "r_frame_rate": "0/0",
         "sample_fmt": "fltp",
         "sample_rate": "48000",
         "start_pts": 0,
         "start_time": "0:00:00.000000",
         "tags": {
            "language": "eng",
            "title": "Super Title"
         },
         "time_base": "1/1000"
      },
      {
         "avg_frame_rate": "0/0",
         "bits_per_sample": 0,
         "channel_layout": "5.1(side)",
         "channels": 6,
         "codec_long_name": "DCA (DTS Coherent Acoustics)",
         "codec_name": "dts",
         "codec_tag": "0x0000",
         "codec_tag_string": "[0][0][0][0]",
         "codec_time_base": "1/48000",
         "codec_type": "audio",
         "disposition": {
            "attached_pic": 0,
            "clean_effects": 0,
            "comment": 0,
            "default": 0,
            "dub": 0,
            "forced": 0,
            "hearing_impaired": 0,
            "karaoke": 0,
            "lyrics": 0,
            "original": 0,
            "timed_thumbnails": 0,
            "visual_impaired": 0
         },
         "index": 4,
         "profile": "DTS-HD HRA",
         "r_frame_rate": "0/0",
         "sample_fmt": "fltp",
         "sample_rate": "48000",
         "start_pts": 0,
         "start_time": "0:00:00.000000",
         "tags": {
            "language": "fre",
            "title": "Super Title"
         },
         "time_base": "1/1000"
      },
      {
         "avg_frame_rate": "0/0",
         "bit_rate": "1536000",
         "bits_per_sample": 0,
         "channel_layout": "5.1(side)",
         "channels": 6,
         "codec_long_name": "DCA (DTS Coherent Acoustics)",
         "codec_name": "dts",
         "codec_tag": "0x0000",
         "codec_tag_string": "[0][0][0][0]",
         "codec_time_base": "1/48000",
         "codec_type": "audio",
         "disposition": {
            "attached_pic": 0,
            "clean_effects": 0,
            "comment": 0,
            "default": 0,
            "dub": 0,
            "forced": 0,
            "hearing_impaired": 0,
            "karaoke": 0,
            "lyrics": 0,
            "original": 0,
            "timed_thumbnails": 0,
            "visual_impaired": 0
         },
         "index": 5,
         "profile": "DTS",
         "r_frame_rate": "0/0",
         "sample_fmt": "fltp",
         "sample_rate": "48000",
         "start_pts": 0,
         "start_time": "0:00:00.000000",
         "tags": {
            "language": "fre",
            "title": "Super Title"
         },
         "time_base": "1/1000"
      },
      {
         "avg_frame_rate": "0/0",
         "bit_rate": "640000",
         "bits_per_sample": 0,
         "channel_layout": "5.1(side)",
         "channels": 6,
         "codec_long_name": "ATSC A/52A (AC-3)",
         "codec_name": "ac3",
         "codec_tag": "0x0000",
         "codec_tag_string": "[0][0][0][0]",
         "codec_time_base": "1/48000",
         "codec_type": "audio",
         "disposition": {
            "attached_pic": 0,
            "clean_effects": 0,
            "comment": 0,
            "default": 0,
            "dub": 0,
            "forced": 0,
            "hearing_impaired": 0,
            "karaoke": 0,
            "lyrics": 0,
            "original": 0,
            "timed_thumbnails": 0,
            "visual_impaired": 0
         },
         "dmix_mode": "-1",
         "index": 6,
         "loro_cmixlev": "-1.000000",
         "loro_surmixlev": "-1.000000",
         "ltrt_cmixlev": "-1.000000",
         "ltrt_surmixlev": "-1.000000",
         "r_frame_rate": "0/0",
         "sample_fmt": "fltp",
         "sample_rate": "48000",
         "start_pts": 0,
         "start_time": "0:00:00.000000",
         "tags": {
            "language": "cze",
            "title": "Super Title"
         },
         "time_base": "1/1000"
      },
      {
         "avg_frame_rate": "0/0",
         "bit_rate": "640000",
         "bits_per_sample": 0,
         "channel_layout": "5.1(side)",
         "channels": 6,
         "codec_long_name": "ATSC A/52A (AC-3)",
         "codec_name": "ac3",
         "codec_tag": "0x0000",
         "codec_tag_string": "[0][0][0][0]",
         "codec_time_base": "1/48000",
         "codec_type": "audio",
         "disposition": {
            "attached_pic": 0,
            "clean_effects": 0,
            "comment": 0,
            "default": 0,
            "dub": 0,
            "forced": 0,
            "hearing_impaired": 0,
            "karaoke": 0,
            "lyrics": 0,
            "original": 0,
            "timed_thumbnails": 0,
            "visual_impaired": 0
         },
         "dmix_mode": "-1",
         "index": 7,
         "loro_cmixlev": "-1.000000",
         "loro_surmixlev": "-1.000000",
         "ltrt_cmixlev": "-1.000000",
         "ltrt_surmixlev": "-1.000000",
         "r_frame_rate": "0/0",
         "sample_fmt": "fltp",
         "sample_rate": "48000",
         "start_pts": 0,
         "start_time": "0:00:00.000000",
         "tags": {
            "language": "hin",
            "title": "Super Title"
         },
         "time_base": "1/1000"
      },
      {
         "avg_frame_rate": "0/0",
         "codec_long_name": "HDMV Presentation Graphic Stream subtitles",
         "codec_name": "hdmv_pgs_subtitle",
         "codec_tag": "0x0000",
         "codec_tag_string": "[0][0][0][0]",
         "codec_time_base": "0/1",
         "codec_type": "subtitle",
         "disposition": {
            "attached_pic": 0,
            "clean_effects": 0,
            "comment": 0,
            "default": 0,
            "dub": 0,
            "forced": 0,
            "hearing_impaired": 0,
            "karaoke": 0,
            "lyrics": 0,
            "original": 0,
            "timed_thumbnails": 0,
            "visual_impaired": 0
         },
         "duration": "1:23:45.670000",
         "duration_ts": 503170,
         "index": 8,
         "r_frame_rate": "0/0",
         "start_pts": 0,
         "start_time": "0:00:00.000000",
         "tags": {
            "language": "eng",
            "title": "English-PGS"
         },
         "time_base": "1/1000"
      },
      {
         "avg_frame_rate": "0/0",
         "codec_long_name": "HDMV Presentation Graphic Stream subtitles",
         "codec_name": "hdmv_pgs_subtitle",
         "codec_tag": "0x0000",
         "codec_tag_string": "[0][0][0][0]",
         "codec_time_base": "0/1",
         "codec_type": "subtitle",
         "disposition": {
            "attached_pic": 0,
            "clean_effects": 0,
            "comment": 0,
            "default": 0,
            "dub": 0,
            "forced": 0,
            "hearing_impaired": 0,
            "karaoke": 0,
            "lyrics": 0,
            "original": 0,
            "timed_thumbnails": 0,
            "visual_impaired": 0
         },
         "duration": "1:23:45.670000",
         "duration_ts": 503170,
         "index": 9,
         "r_frame_rate": "0/0",
         "start_pts": 0,
         "start_time": "0:00:00.000000",
         "tags": {
            "language": "fre",
            "title": "French-PGS"
         },
         "time_base": "1/1000"
      },
      {
         "avg_frame_rate": "0/0",
         "codec_long_name": "HDMV Presentation Graphic Stream subtitles",
         "codec_name": "hdmv_pgs_subtitle",
         "codec_tag": "0x0000",
         "codec_tag_string": "[0][0][0][0]",
         "codec_time_base": "0/1",
         "codec_type": "subtitle",
         "disposition": {
            "attached_pic": 0,
            "clean_effects": 0,
            "comment": 0,
            "default": 0,
            "dub": 0,
            "forced": 0,
            "hearing_impaired": 0,
            "karaoke": 0,
            "lyrics": 0,
            "original": 0,
            "timed_thumbnails": 0,
            "visual_impaired": 0
         },
         "duration": "1:23:45.670000",
         "duration_ts": 503170,
         "index": 10,
         "r_frame_rate": "0/0",
         "start_pts": 0,
         "start_time": "0:00:00.000000",
         "tags": {
            "language": "cze",
            "title": "Czech-PGS"
         },
         "time_base": "1/1000"
      },
      {
         "avg_frame_rate": "0/0",
         "codec_long_name": "HDMV Presentation Graphic Stream subtitles",
         "codec_name": "hdmv_pgs_subtitle",
         "codec_tag": "0x0000",
         "codec_tag_string": "[0][0][0][0]",
         "codec_time_base": "0/1",
         "codec_type": "subtitle",
         "disposition": {
            "attached_pic": 0,
            "clean_effects": 0,
            "comment": 0,
            "default": 0,
            "dub": 0,
            "forced": 0,
            "hearing_impaired": 0,
            "karaoke": 0,
            "lyrics": 0,
            "original": 0,
            "timed_thumbnails": 0,
            "visual_impaired": 0
         },
         "duration": "1:23:45.670000",
         "duration_ts": 503170,
         "index": 11,
         "r_frame_rate": "0/0",
         "start_pts": 0,
         "start_time": "0:00:00.000000",
         "tags": {
            "language": "dut",
            "title": "Dutch-PGS"
         },
         "time_base": "1/1000"
      },
      {
         "avg_frame_rate": "0/0",
         "codec_long_name": "HDMV Presentation Graphic Stream subtitles",
         "codec_name": "hdmv_pgs_subtitle",
         "codec_tag": "0x0000",
         "codec_tag_string": "[0][0][0][0]",
         "codec_time_base": "0/1",
         "codec_type": "subtitle",
         "disposition": {
            "attached_pic": 0,
            "clean_effects": 0,
            "comment": 0,
            "default": 0,
            "dub": 0,
            "forced": 0,
            "hearing_impaired": 0,
            "karaoke": 0,
            "lyrics": 0,
            "original": 0,
            "timed_thumbnails": 0,
            "visual_impaired": 0
         },
         "duration": "1:23:45.670000",
         "duration_ts": 503170,
         "index": 12,
         "r_frame_rate": "0/0",
         "start_pts": 0,
         "start_time": "0:00:00.000000",
         "tags": {
            "language": "ara",
            "title": "Arabic-PGS"
         },
         "time_base": "1/1000"
      },
      {
         "avg_frame_rate": "0/0",
         "codec_long_name": "HDMV Presentation Graphic Stream subtitles",
         "codec_name": "hdmv_pgs_subtitle",
         "codec_tag": "0x0000",
         "codec_tag_string": "[0][0][0][0]",
         "codec_time_base": "0/1",
         "codec_type": "subtitle",
         "disposition": {
            "attached_pic": 0,
            "clean_effects": 0,
            "comment": 0,
            "default": 0,
            "dub": 0,
            "forced": 0,
            "hearing_impaired": 0,
            "karaoke": 0,
            "lyrics": 0,
            "original": 0,
            "timed_thumbnails": 0,
            "visual_impaired": 0
         },
         "duration": "1:23:45.670000",
         "duration_ts": 503170,
         "index": 13,
         "r_frame_rate": "0/0",
         "start_pts": 0,
         "start_time": "0:00:00.000000",
         "tags": {
            "language": "dan",
            "title": "Danish-PGS"
         },
         "time_base": "1/1000"
      },
      {
         "avg_frame_rate": "0/0",
         "codec_long_name": "HDMV Presentation Graphic Stream subtitles",
         "codec_name": "hdmv_pgs_subtitle",
         "codec_tag": "0x0000",
         "codec_tag_string": "[0][0][0][0]",
         "codec_time_base": "0/1",
         "codec_type": "subtitle",
         "disposition": {
            "attached_pic": 0,
            "clean_effects": 0,
            "comment": 0,
            "default": 0,
            "dub": 0,
            "forced": 0,
            "hearing_impaired": 0,
            "karaoke": 0,
            "lyrics": 0,
            "original": 0,
            "timed_thumbnails": 0,
            "visual_impaired": 0
         },
         "duration": "1:23:45.670000",
         "duration_ts": 503170,
         "index": 14,
         "r_frame_rate": "0/0",
         "start_pts": 0,
         "start_time": "0:00:00.000000",
         "tags": {
            "language": "fin",
            "title": "Finnish-PGS"
         },
         "time_base": "1/1000"
      },
      {
         "avg_frame_rate": "0/0",
         "codec_long_name": "HDMV Presentation Graphic Stream subtitles",
         "codec_name": "hdmv_pgs_subtitle",
         "codec_tag": "0x0000",
         "codec_tag_string": "[0][0][0][0]",
         "codec_time_base": "0/1",
         "codec_type": "subtitle",
         "disposition": {
            "attached_pic": 0,
            "clean_effects": 0,
            "comment": 0,
            "default": 0,
            "dub": 0,
            "forced": 0,
            "hearing_impaired": 0,
            "karaoke": 0,
            "lyrics": 0,
            "original": 0,
            "timed_thumbnails": 0,
            "visual_impaired": 0
         },
         "duration": "1:23:45.670000",
         "duration_ts": 503170,
         "index": 15,
         "r_frame_rate": "0/0",
         "start_pts": 0,
         "start_time": "0:00:00.000000",
         "tags": {
            "language": "nor",
            "title": "Norwegian-PGS"
         },
         "time_base": "1/1000"
      },
      {
         "avg_frame_rate": "0/0",
         "codec_long_name": "HDMV Presentation Graphic Stream subtitles",
         "codec_name": "hdmv_pgs_subtitle",
         "codec_tag": "0x0000",
         "codec_tag_string": "[0][0][0][0]",
         "codec_time_base": "0/1",
         "codec_type": "subtitle",
         "disposition": {
            "attached_pic": 0,
            "clean_effects": 0,
            "comment": 0,
            "default": 0,
            "dub": 0,
            "forced": 0,
            "hearing_impaired": 0,
            "karaoke": 0,
            "lyrics": 0,
            "original": 0,
            "timed_thumbnails": 0,
            "visual_impaired": 0
         },
         "duration": "1:23:45.670000",
         "duration_ts": 503170,
         "index": 16,
         "r_frame_rate": "0/0",
         "start_pts": 0,
         "start_time": "0:00:00.000000",
         "tags": {
            "language": "swe",
            "title": "Swedish-PGS"
         },
         "time_base": "1/1000"
      },
      {
         "avg_frame_rate": "0/0",
         "codec_long_name": "HDMV Presentation Graphic Stream subtitles",
         "codec_name": "hdmv_pgs_subtitle",
         "codec_tag": "0x0000",
         "codec_tag_string": "[0][0][0][0]",
         "codec_time_base": "0/1",
         "codec_type": "subtitle",
         "disposition": {
            "attached_pic": 0,
            "clean_effects": 0,
            "comment": 0,
            "default": 0,
            "dub": 0,
            "forced": 0,
            "hearing_impaired": 0,
            "karaoke": 0,
            "lyrics": 0,
            "original": 0,
            "timed_thumbnails": 0,
            "visual_impaired": 0
         },
         "duration": "1:23:45.670000",
         "duration_ts": 503170,
         "index": 17,
         "r_frame_rate": "0/0",
         "start_pts": 0,
         "start_time": "0:00:00.000000",
         "tags": {
            "language": "fre",
            "title": "French-FORCED-PGS"
         },
         "time_base": "1/1000"
      },
      {
         "avg_frame_rate": "0/0",
         "codec_long_name": "HDMV Presentation Graphic Stream subtitles",
         "codec_name": "hdmv_pgs_subtitle",
         "codec_tag": "0x0000",
         "codec_tag_string": "[0][0][0][0]",
         "codec_time_base": "0/1",
         "codec_type": "subtitle",
         "disposition": {
            "attached_pic": 0,
            "clean_effects": 0,
            "comment": 0,
            "default": 0,
            "dub": 0,
            "forced": 0,
            "hearing_impaired": 0,
            "karaoke": 0,
            "lyrics": 0,
            "original": 0,
            "timed_thumbnails": 0,
            "visual_impaired": 0
         },
         "duration": "1:23:45.670000",
         "duration_ts": 503170,
         "index": 18,
         "r_frame_rate": "0/0",
         "start_pts": 0,
         "start_time": "0:00:00.000000",
         "tags": {
            "language": "cze",
            "title": "Czech-FORCED-PGS"
         },
         "time_base": "1/1000"
      },
      {
         "avg_frame_rate": "0/0",
         "codec_long_name": "HDMV Presentation Graphic Stream subtitles",
         "codec_name": "hdmv_pgs_subtitle",
         "codec_tag": "0x0000",
         "codec_tag_string": "[0][0][0][0]",
         "codec_time_base": "0/1",
         "codec_type": "subtitle",
         "disposition": {
            "attached_pic": 0,
            "clean_effects": 0,
            "comment": 0,
            "default": 0,
            "dub": 0,
            "forced": 0,
            "hearing_impaired": 0,
            "karaoke": 0,
            "lyrics": 0,
            "original": 0,
            "timed_thumbnails": 0,
            "visual_impaired": 0
         },
         "duration": "1:23:45.670000",
         "duration_ts": 503170,
         "index": 19,
         "r_frame_rate": "0/0",
         "start_pts": 0,
         "start_time": "0:00:00.000000",
         "tags": {
            "language": "hin",
            "title": "Hindi-FORCED-PGS"
         },
         "time_base": "1/1000"
      },
      {
         "avg_frame_rate": "0/0",
         "bits_per_raw_sample": "8",
         "chroma_location": "center",
         "codec_long_name": "Motion JPEG",
         "codec_name": "mjpeg",
         "codec_tag": "0x0000",
         "codec_tag_string": "[0][0][0][0]",
         "codec_time_base": "0/1",
         "codec_type": "video",
         "coded_height": 600,
         "coded_width": 1067,
         "color_range": "pc",
         "color_space": "bt470bg",
         "display_aspect_ratio": "0:1",
         "disposition": {
            "attached_pic": 1,
            "clean_effects": 0,
            "comment": 0,
            "default": 0,
            "dub": 0,
            "forced": 0,
            "hearing_impaired": 0,
            "karaoke": 0,
            "lyrics": 0,
            "original": 0,
            "timed_thumbnails": 0,
            "visual_impaired": 0
         },
         "duration": "1:23:45.670000",
         "duration_ts": 745804800,
         "has_b_frames": 0,
         "height": 600,
         "index": 20,
         "level": -99,
         "pix_fmt": "yuvj444p",
         "r_frame_rate": "90000/1",
         "refs": 1,
         "sample_aspect_ratio": "0:1",
         "start_pts": 0,
         "start_time": "0:00:00.000000",
         "tags": {
            "filename": "cover_land.jpg",
            "mimetype": "image/jpeg"
         },
         "time_base": "1/90000",
         "width": 1067
      },
      {
         "avg_frame_rate": "0/0",
         "bits_per_raw_sample": "8",
         "chroma_location": "center",
         "codec_long_name": "Motion JPEG",
         "codec_name": "mjpeg",
         "codec_tag": "0x0000",
         "codec_tag_string": "[0][0][0][0]",
         "codec_time_base": "0/1",
         "codec_type": "video",
         "coded_height": 176,
         "coded_width": 120,
         "color_range": "pc",
         "color_space": "bt470bg",
         "display_aspect_ratio": "0:1",
         "disposition": {
            "attached_pic": 1,
            "clean_effects": 0,
            "comment": 0,
            "default": 0,
            "dub": 0,
            "forced": 0,
            "hearing_impaired": 0,
            "karaoke": 0,
            "lyrics": 0,
            "original": 0,
            "timed_thumbnails": 0,
            "visual_impaired": 0
         },
         "duration": "1:23:45.670000",
         "duration_ts": 745804800,
         "has_b_frames": 0,
         "height": 176,
         "index": 21,
         "level": -99,
         "pix_fmt": "yuvj444p",
         "r_frame_rate": "90000/1",
         "refs": 1,
         "sample_aspect_ratio": "0:1",
         "start_pts": 0,
         "start_time": "0:00:00.000000",
         "tags": {
            "filename": "small_cover.jpg",
            "mimetype": "image/jpeg"
         },
         "time_base": "1/90000",
         "width": 120
      },
      {
         "avg_frame_rate": "0/0",
         "bits_per_raw_sample": "8",
         "chroma_location": "center",
         "codec_long_name": "Motion JPEG",
         "codec_name": "mjpeg",
         "codec_tag": "0x0000",
         "codec_tag_string": "[0][0][0][0]",
         "codec_time_base": "0/1",
         "codec_type": "video",
         "coded_height": 120,
         "coded_width": 213,
         "color_range": "pc",
         "color_space": "bt470bg",
         "display_aspect_ratio": "0:1",
         "disposition": {
            "attached_pic": 1,
            "clean_effects": 0,
            "comment": 0,
            "default": 0,
            "dub": 0,
            "forced": 0,
            "hearing_impaired": 0,
            "karaoke": 0,
            "lyrics": 0,
            "original": 0,
            "timed_thumbnails": 0,
            "visual_impaired": 0
         },
         "duration": "1:23:45.670000",
         "duration_ts": 745804800,
         "has_b_frames": 0,
         "height": 120,
         "index": 22,
         "level": -99,
         "pix_fmt": "yuvj444p",
         "r_frame_rate": "90000/1",
         "refs": 1,
         "sample_aspect_ratio": "0:1",
         "start_pts": 0,
         "start_time": "0:00:00.000000",
         "tags": {
            "filename": "small_cover_land.jpg",
            "mimetype": "image/jpeg"
         },
         "time_base": "1/90000",
         "width": 213
      },
      {
         "avg_frame_rate": "0/0",
         "bits_per_raw_sample": "8",
         "chroma_location": "center",
         "codec_long_name": "Motion JPEG",
         "codec_name": "mjpeg",
         "codec_tag": "0x0000",
         "codec_tag_string": "[0][0][0][0]",
         "codec_time_base": "0/1",
         "codec_type": "video",
         "coded_height": 882,
         "coded_width": 600,
         "color_range": "pc",
         "color_space": "bt470bg",
         "display_aspect_ratio": "0:1",
         "disposition": {
            "attached_pic": 1,
            "clean_effects": 0,
            "comment": 0,
            "default": 0,
            "dub": 0,
            "forced": 0,
            "hearing_impaired": 0,
            "karaoke": 0,
            "lyrics": 0,
            "original": 0,
            "timed_thumbnails": 0,
            "visual_impaired": 0
         },
         "duration": "1:23:45.670000",
         "duration_ts": 745804800,
         "has_b_frames": 0,
         "height": 882,
         "index": 23,
         "level": -99,
         "pix_fmt": "yuvj444p",
         "r_frame_rate": "90000/1",
         "refs": 1,
         "sample_aspect_ratio": "0:1",
         "start_pts": 0,
         "start_time": "0:00:00.000000",
         "tags": {
            "filename": "cover.jpg",
            "mimetype": "image/jpeg"
         },
         "time_base": "1/90000",
         "width": 600
      }
   ]
}